 <svg
        xmlns="http://www.w3.org/2000/svg"
        x="0px"
        y="0px"
        width="64"
        height="64"
        viewBox="0 0 172 172"
        style="fill: #000000"
      >
        <g
          fill="none"
          fill-rule="nonzero"
          stroke="none"
          stroke-width="1"
          stroke-linecap="butt"
          stroke-linejoin="miter"
          stroke-miterlimit="10"
          stroke-dasharray=""
          stroke-dashoffset="0"
          font-family="none"
          font-weight="none"
          font-size="none"
          text-anchor="none"
          style="mix-blend-mode: normal"
        >
          <path d="M0,172v-172h172v172z" fill="none"></path>
          <g>
            <path
              d="M83.3125,8.0625c-41.55943,0 -75.25,33.69057 -75.25,75.25c0,41.55943 33.69057,75.25 75.25,75.25c41.55943,0 75.25,-33.69057 75.25,-75.25c0,-41.55943 -33.69057,-75.25 -75.25,-75.25z"
              fill="#f9e3ae"
            ></path>
            <path
              d="M26.875,96.75c-7.42133,0 -13.4375,6.01617 -13.4375,13.4375c0,7.42133 6.01617,13.4375 13.4375,13.4375c7.42133,0 13.4375,-6.01617 13.4375,-13.4375c0,-7.42133 -6.01617,-13.4375 -13.4375,-13.4375zM57.78125,51.0625c-6.67919,0 -12.09375,5.41456 -12.09375,12.09375c0,6.67919 5.41456,12.09375 12.09375,12.09375c6.67919,0 12.09375,-5.41456 12.09375,-12.09375c0,-6.67919 -5.41456,-12.09375 -12.09375,-12.09375zM96.75,91.375c-4.4528,0 -8.0625,3.6097 -8.0625,8.0625c0,4.4528 3.6097,8.0625 8.0625,8.0625c4.4528,0 8.0625,-3.6097 8.0625,-8.0625c0,-4.4528 -3.6097,-8.0625 -8.0625,-8.0625z"
              fill="#f6d397"
            ></path>
            <path
              d="M138.46,45.82188v0c-3.32751,2.25869 -7.81068,1.71979 -10.50813,-1.26312c-17.91302,-20.61967 -47.61889,-26.28534 -71.86375,-13.70625c-3.60562,1.78417 -7.97472,0.63742 -10.23937,-2.6875v0c-1.30534,-1.90771 -1.72908,-4.28393 -1.16361,-6.52524c0.56547,-2.24132 2.06575,-4.13212 4.11986,-5.19226c30.78839,-15.88403 68.44304,-8.69481 91.21375,17.415c1.51193,1.74012 2.2067,4.04419 1.90877,6.33005c-0.29793,2.28587 -1.56007,4.33488 -3.46752,5.62932z"
              fill="#faefde"
            ></path>
            <path
              d="M120.80313,138.46c1.30534,1.90771 1.72908,4.28393 1.16361,6.52524c-0.56547,2.24132 -2.06575,4.13212 -4.11986,5.19226c-30.79511,15.8983 -68.46609,8.70808 -91.24062,-17.415c-1.52138,-1.74119 -2.22198,-4.05176 -1.9238,-6.34466c0.29818,-2.2929 1.56644,-4.34743 3.48255,-5.64159v0c3.32751,-2.25869 7.81068,-1.71979 10.50812,1.26313c17.91302,20.61967 47.61889,26.28534 71.86375,13.70625c3.60562,-1.78417 7.97472,-0.63742 10.23938,2.6875z"
              fill="#f6d397"
            ></path>
            <path
              d="M83.3125,5.375c-43.04369,0 -77.9375,34.89381 -77.9375,77.9375c0,43.04369 34.89381,77.9375 77.9375,77.9375c43.04369,0 77.9375,-34.89381 77.9375,-77.9375c0,-43.04369 -34.89381,-77.9375 -77.9375,-77.9375zM83.3125,155.875c-23.36813,-0.02133 -45.2959,-11.29532 -58.91,-30.28813c6.95824,1.00273 13.71639,-2.81757 16.44541,-9.29638c2.72902,-6.47881 0.74106,-13.98316 -4.83753,-18.26123c-5.57859,-4.27807 -13.34175,-4.25157 -18.891,0.06449c-1.17257,0.91282 -1.38314,2.60337 -0.47031,3.77594c0.91282,1.17257 2.60337,1.38314 3.77594,0.47031c4.17469,-3.21482 10.12339,-2.66014 13.63175,1.27107c3.50836,3.93122 3.38541,9.90446 -0.28174,13.68799c-3.66716,3.78352 -9.63365,4.09295 -13.67251,0.70907c-0.20474,-0.15702 -0.43102,-0.28374 -0.67187,-0.37625c-15.43676,-28.75714 -9.77416,-64.28195 13.83813,-86.81474c23.61229,-22.53279 59.36303,-26.52799 87.36687,-9.76339c28.00384,16.7646 41.36872,50.16306 32.66081,81.61841c-8.70791,31.45535 -37.34551,53.22609 -69.98393,53.20285z"
              fill="#e67e22"
            ></path>
            <path
              d="M83.3125,131.6875c-1.48427,0 -2.6875,1.20323 -2.6875,2.6875v5.375c0,1.48427 1.20323,2.6875 2.6875,2.6875c1.48427,0 2.6875,-1.20323 2.6875,-2.6875v-5.375c0,-1.48427 -1.20323,-2.6875 -2.6875,-2.6875zM99.4375,131.9025c-0.42453,-1.3848 -1.8701,-2.18407 -3.26863,-1.80726c-1.39854,0.37681 -2.24689,1.79413 -1.91824,3.20476l1.3975,5.18687c0.39333,1.43974 1.87933,2.28802 3.31906,1.89469c1.43974,-0.39333 2.28802,-1.87933 1.89469,-3.31906zM58.45313,125.0225c-0.61953,-0.3589 -1.35667,-0.45576 -2.04788,-0.26908c-0.69122,0.18668 -1.27937,0.64146 -1.63399,1.26345l-2.6875,4.64937c-0.66758,1.27616 -0.21049,2.85172 1.03641,3.57248c1.2469,0.72075 2.84032,0.33045 3.61297,-0.88498l2.6875,-4.64937c0.36113,-0.61627 0.46208,-1.35094 0.28054,-2.04177c-0.18153,-0.69083 -0.63061,-1.28098 -1.24804,-1.6401zM111.85375,126.01688c-0.77265,-1.21543 -2.36607,-1.60573 -3.61297,-0.88498c-1.2469,0.72075 -1.70399,2.29632 -1.03641,3.57248l2.6875,4.64937c0.77265,1.21543 2.36607,1.60573 3.61297,0.88498c1.2469,-0.72075 1.70399,-2.29632 1.03641,-3.57248zM70.43938,129.99438c-1.43191,-0.37551 -2.89787,0.47763 -3.27875,1.90813l-1.3975,5.16c-0.28786,0.939 -0.04058,1.96024 0.64494,2.66355c0.68552,0.70331 1.70009,0.97667 2.64616,0.71295c0.94606,-0.26371 1.67293,-1.02249 1.89578,-1.97901l1.3975,-5.18687c0.37551,-1.43191 -0.47763,-2.89787 -1.90812,-3.27875zM103.06563,30.4225c1.92447,0.72176 3.80847,1.54714 5.64375,2.4725c1.32842,0.66792 2.94677,0.13248 3.61469,-1.19594c0.66792,-1.32842 0.13248,-2.94677 -1.19594,-3.61469c-2.00959,-1.00846 -4.07313,-1.90565 -6.18125,-2.6875c-0.9121,-0.40234 -1.97197,-0.26675 -2.75341,0.35225c-0.78144,0.619 -1.15603,1.6197 -0.97314,2.59968c0.18289,0.97998 0.8932,1.77821 1.8453,2.07369zM61.06,31.20187c0.34941,0.00428 0.6963,-0.05962 1.02125,-0.18812c9.56916,-3.87248 20.01552,-5.0528 30.2075,-3.41313c1.48427,0.23748 2.88002,-0.77323 3.1175,-2.2575c0.23748,-1.48427 -0.77323,-2.88002 -2.2575,-3.1175c-11.16427,-1.79549 -22.60715,-0.4941 -33.08313,3.7625c-1.20622,0.47642 -1.90014,1.7463 -1.6496,3.01877c0.25054,1.27247 1.37406,2.1845 2.67085,2.16811zM71.54125,63.50562c0,-1.48427 -1.20323,-2.6875 -2.6875,-2.6875c-1.48427,0 -2.6875,1.20323 -2.6875,2.6875c0.17482,4.44393 -3.11881,8.26546 -7.53989,8.74835c-4.42107,0.48289 -8.46202,-2.53751 -9.25066,-6.9144c-0.78864,-4.37689 1.94396,-8.61776 6.25554,-9.70833c1.43974,-0.36364 2.31208,-1.82558 1.94844,-3.26531c-0.36364,-1.43974 -1.82558,-2.31208 -3.26531,-1.94844c-0.92531,0.22194 -1.82575,0.53709 -2.6875,0.94063c-6.22007,3.01066 -9.26641,10.14792 -7.13741,16.72215c2.12901,6.57424 8.78094,10.5708 15.58507,9.36369c6.80413,-1.2071 11.67535,-7.24796 11.41296,-14.15335z"
              fill="#e67e22"
            ></path>
            <path
              d="M61.06,53.07813c-0.36113,0.61627 -0.46208,1.35094 -0.28054,2.04177c0.18153,0.69083 0.63061,1.28098 1.24804,1.6401c0.58623,0.3443 1.12781,0.75951 1.6125,1.23625c1.06125,1.03899 2.76383,1.02094 3.80281,-0.04031c1.03899,-1.06125 1.02094,-2.76383 -0.04031,-3.80281c-0.80962,-0.77974 -1.71226,-1.45672 -2.6875,-2.01562c-1.27059,-0.73856 -2.89879,-0.31953 -3.655,0.94062zM96.75,88.6875c-5.93706,0 -10.75,4.81294 -10.75,10.75c0,5.93706 4.81294,10.75 10.75,10.75c5.93706,0 10.75,-4.81294 10.75,-10.75c0,-5.93706 -4.81294,-10.75 -10.75,-10.75zM96.75,104.8125c-2.96853,0 -5.375,-2.40647 -5.375,-5.375c0,-2.96853 2.40647,-5.375 5.375,-5.375c2.96853,0 5.375,2.40647 5.375,5.375c0,2.96853 -2.40647,5.375 -5.375,5.375zM107.5,56.4375c-2.96853,0 -5.375,2.40647 -5.375,5.375c0,2.96853 2.40647,5.375 5.375,5.375c2.96853,0 5.375,-2.40647 5.375,-5.375c0,-2.96853 -2.40647,-5.375 -5.375,-5.375zM129,86c-2.96853,0 -5.375,2.40647 -5.375,5.375c0,2.96853 2.40647,5.375 5.375,5.375c2.96853,0 5.375,-2.40647 5.375,-5.375c0,-2.96853 -2.40647,-5.375 -5.375,-5.375z"
              fill="#e67e22"
            ></path>
          </g>
        </g>
      </svg>