<svg xmlns="http://www.w3.org/2000/svg" x="0px" y="0px"
width="64" height="64"
viewBox="0 0 172 172"
style=" fill:#000000;"><g fill="none" fill-rule="nonzero" stroke="none" stroke-width="1" stroke-linecap="butt" stroke-linejoin="miter" stroke-miterlimit="10" stroke-dasharray="" stroke-dashoffset="0" font-family="none" font-weight="none" font-size="none" text-anchor="none" style="mix-blend-mode: normal"><path d="M0,172v-172h172v172z" fill="none"></path><g><path d="M30.66903,74.92299c-6.11289,30.56427 13.70887,60.29699 44.27314,66.40988c30.56427,6.11289 60.29699,-13.70887 66.40988,-44.27314c6.11289,-30.56427 -13.70887,-60.29699 -44.27314,-66.40988c-30.56427,-6.11289 -60.29699,13.70887 -66.40988,44.27314z" fill="#f9e3ae"></path><path d="M97.0725,30.66438c-17.4183,-3.51487 -35.47322,1.40739 -48.6975,13.27625c-1.85745,1.63343 -2.86233,4.02909 -2.72599,6.49883c0.13633,2.46974 1.39879,4.74024 3.42474,6.1593v0c3.0891,2.16159 7.26377,1.8937 10.05125,-0.645c9.63897,-8.60176 22.81659,-12.06274 35.43835,-9.30755c12.62176,2.75519 23.15841,11.39274 28.33602,23.2288c1.56228,3.76827 5.69298,5.77593 9.62125,4.67625v0c2.21355,-0.60329 4.06524,-2.12104 5.09127,-4.17311c1.02603,-2.05207 1.12923,-4.44408 0.28373,-6.57689c-7.29402,-17.11429 -22.57471,-29.5179 -40.82313,-33.13687z" fill="#faefde"></path><path d="M65.87063,138.72875c16.57713,6.34349 35.17584,4.49059 50.17563,-4.99875c2.10668,-1.30009 3.49933,-3.49592 3.77731,-5.95581c0.27798,-2.45989 -0.58951,-4.91113 -2.35294,-6.64857v0c-2.67589,-2.62448 -6.80748,-3.0588 -9.97063,-1.04812c-10.9377,6.88101 -24.51113,8.10156 -36.50094,3.28223c-11.98981,-4.81933 -20.94258,-15.09433 -24.07531,-27.63098c-0.91507,-3.97351 -4.65274,-6.63833 -8.7075,-6.20813v0c-2.26479,0.25916 -4.31403,1.46493 -5.64046,3.31886c-1.32643,1.85392 -1.80606,4.18271 -1.32017,6.40989c4.31612,18.06583 17.26851,32.8384 34.615,39.47938z" fill="#f6d397"></path><path d="M86,26.875c-32.65384,0 -59.125,26.47116 -59.125,59.125c0,32.65384 26.47116,59.125 59.125,59.125c32.65384,0 59.125,-26.47116 59.125,-59.125c0,-32.65384 -26.47116,-59.125 -59.125,-59.125zM86,139.75c-29.68531,0 -53.75,-24.06469 -53.75,-53.75c0,-29.68531 24.06469,-53.75 53.75,-53.75c29.68531,0 53.75,24.06469 53.75,53.75c0,29.68531 -24.06469,53.75 -53.75,53.75z" fill="#e67e22"></path><path d="M113.09,52.62125c-0.73773,-0.66331 -1.78088,-0.86624 -2.71348,-0.52788c-0.9326,0.33836 -1.60293,1.16298 -1.7437,2.14503c-0.14077,0.98204 0.27094,1.96177 1.07093,2.54848c1.45441,1.17874 2.81979,2.46328 4.085,3.84313c1.00188,1.09836 2.70446,1.17657 3.80281,0.17469c1.09836,-1.00188 1.17657,-2.70446 0.17469,-3.80281c-1.44904,-1.57309 -3.01202,-3.03726 -4.67625,-4.38062zM58.85625,58.88313c0.66606,-0.00174 1.30774,-0.25075 1.80063,-0.69875c10.59814,-9.59474 25.71831,-12.35427 39.0225,-7.12187c1.36104,0.46723 2.8486,-0.2205 3.37433,-1.56003c0.52573,-1.33953 -0.09695,-2.85548 -1.41246,-3.43872c-15.23488,-5.94977 -32.52605,-2.74153 -44.6125,8.2775c-0.82072,0.74597 -1.09891,1.91948 -0.70037,2.95448c0.39853,1.035 1.39192,1.71888 2.501,1.72177zM86,21.5c1.48427,0 2.6875,-1.20323 2.6875,-2.6875v-16.125c0,-1.48427 -1.20323,-2.6875 -2.6875,-2.6875c-1.48427,0 -2.6875,1.20323 -2.6875,2.6875v16.125c0,1.48427 1.20323,2.6875 2.6875,2.6875zM86,150.5c-1.48427,0 -2.6875,1.20323 -2.6875,2.6875v16.125c0,1.48427 1.20323,2.6875 2.6875,2.6875c1.48427,0 2.6875,-1.20323 2.6875,-2.6875v-16.125c0,-1.48427 -1.20323,-2.6875 -2.6875,-2.6875zM21.5,86c0,-1.48427 -1.20323,-2.6875 -2.6875,-2.6875h-16.125c-1.48427,0 -2.6875,1.20323 -2.6875,2.6875c0,1.48427 1.20323,2.6875 2.6875,2.6875h16.125c1.48427,0 2.6875,-1.20323 2.6875,-2.6875zM169.3125,83.3125h-16.125c-1.48427,0 -2.6875,1.20323 -2.6875,2.6875c0,1.48427 1.20323,2.6875 2.6875,2.6875h16.125c1.48427,0 2.6875,-1.20323 2.6875,-2.6875c0,-1.48427 -1.20323,-2.6875 -2.6875,-2.6875zM58.34563,24.69812c0.31808,0.94752 1.13571,1.64025 2.12261,1.79836c0.9869,0.15812 1.98002,-0.2445 2.5782,-1.04522c0.59818,-0.80072 0.7026,-1.86725 0.27107,-2.76877l-4.03125,-9.97062c-0.31808,-0.94752 -1.13571,-1.64025 -2.12261,-1.79836c-0.9869,-0.15812 -1.98002,0.2445 -2.5782,1.04522c-0.59818,0.80072 -0.7026,1.86725 -0.27107,2.76877zM113.65438,147.30188c-0.31808,-0.94752 -1.13571,-1.64025 -2.12261,-1.79836c-0.9869,-0.15812 -1.98002,0.2445 -2.5782,1.04522c-0.59818,0.80072 -0.7026,1.86725 -0.27107,2.76877l4.03125,9.97063c0.31808,0.94752 1.13571,1.64025 2.12261,1.79836c0.9869,0.15812 1.98002,-0.2445 2.5782,-1.04522c0.59818,-0.80072 0.7026,-1.86725 0.27107,-2.76877zM26.20313,110.1875c-0.55874,-1.37084 -2.12083,-2.03172 -3.49375,-1.47812l-9.97062,4.03125c-0.94752,0.31808 -1.64025,1.13571 -1.79836,2.12261c-0.15812,0.9869 0.2445,1.98002 1.04522,2.5782c0.80072,0.59818 1.86725,0.7026 2.76877,0.27107l9.97063,-4.03125c1.37084,-0.55874 2.03172,-2.12083 1.47813,-3.49375zM145.79688,61.8125c0.55874,1.37084 2.12083,2.03172 3.49375,1.47812l9.97062,-4.03125c1.28115,-0.61324 1.86392,-2.11751 1.33028,-3.43381c-0.53363,-1.3163 -1.9994,-1.99009 -3.34591,-1.53806l-9.97062,4.03125c-1.37084,0.55874 -2.03172,2.12083 -1.47813,3.49375zM110.1875,26.20313c1.37292,0.55359 2.93501,-0.10729 3.49375,-1.47813l4.03125,-9.97062c0.43153,-0.90153 0.32711,-1.96806 -0.27107,-2.76877c-0.59818,-0.80072 -1.5913,-1.20333 -2.5782,-1.04522c-0.9869,0.15812 -1.80452,0.85085 -2.12261,1.79836l-4.03125,9.97063c-0.55359,1.37292 0.10729,2.93501 1.47813,3.49375zM61.8125,145.79688c-1.37292,-0.55359 -2.93501,0.10729 -3.49375,1.47813l-4.03125,9.97062c-0.43153,0.90153 -0.32711,1.96806 0.27107,2.76877c0.59818,0.80072 1.5913,1.20333 2.5782,1.04522c0.9869,-0.15812 1.80452,-0.85085 2.12261,-1.79836l4.03125,-9.97062c0.55359,-1.37292 -0.10729,-2.93501 -1.47812,-3.49375zM159.26125,112.71375l-9.97062,-4.03125c-1.34651,-0.45203 -2.81227,0.22176 -3.34591,1.53806c-0.53363,1.3163 0.04913,2.82057 1.33028,3.43381l9.97062,4.03125c1.34651,0.45203 2.81227,-0.22176 3.34591,-1.53806c0.53363,-1.3163 -0.04913,-2.82057 -1.33028,-3.43381zM12.73875,59.28625l9.97062,4.03125c1.34651,0.45203 2.81227,-0.22176 3.34591,-1.53806c0.53363,-1.3163 -0.04913,-2.82057 -1.33028,-3.43381l-9.97062,-4.03125c-1.34651,-0.45203 -2.81227,0.22176 -3.34591,1.53806c-0.53363,1.3163 0.04913,2.82057 1.33028,3.43381zM36.60375,40.3125c1.06239,0.67347 2.4498,0.51995 3.33925,-0.3695c0.88945,-0.88945 1.04297,-2.27685 0.3695,-3.33925l-11.31438,-11.42187c-1.06629,-0.91315 -2.65577,-0.85176 -3.64845,0.14092c-0.99268,0.99268 -1.05407,2.58216 -0.14092,3.64845zM135.39625,131.6875c-1.06239,-0.67347 -2.4498,-0.51995 -3.33925,0.3695c-0.88945,0.88945 -1.04297,2.27685 -0.3695,3.33925l11.395,11.395c1.06629,0.91315 2.65577,0.85176 3.64845,-0.14092c0.99268,-0.99268 1.05407,-2.58216 0.14092,-3.64845zM36.60375,131.6875l-11.42187,11.31438c-0.76695,0.6568 -1.10102,1.68807 -0.86486,2.66981c0.23616,0.98175 1.00268,1.74827 1.98443,1.98443c0.98175,0.23616 2.01302,-0.09792 2.66981,-0.86486l11.34125,-11.395c0.67347,-1.06239 0.51995,-2.4498 -0.3695,-3.33925c-0.88945,-0.88945 -2.27685,-1.04297 -3.33925,-0.3695zM133.515,41.1725c0.71435,0.00413 1.40094,-0.27631 1.90813,-0.77937l11.395,-11.395c0.91315,-1.06629 0.85176,-2.65577 -0.14092,-3.64845c-0.99268,-0.99268 -2.58216,-1.05407 -3.64845,-0.14092l-11.34125,11.395c-0.77524,0.76887 -1.00825,1.93034 -0.58956,2.93873c0.41869,1.00839 1.40585,1.66324 2.49768,1.65689zM86,118.25c-1.48427,0 -2.6875,1.20323 -2.6875,2.6875v5.375c0,1.48427 1.20323,2.6875 2.6875,2.6875c1.48427,0 2.6875,-1.20323 2.6875,-2.6875v-5.375c0,-1.48427 -1.20323,-2.6875 -2.6875,-2.6875zM101.5875,117.39c-0.31808,-0.94752 -1.13571,-1.64025 -2.12261,-1.79836c-0.9869,-0.15812 -1.98002,0.2445 -2.5782,1.04522c-0.59818,0.80072 -0.7026,1.86725 -0.27107,2.76877l2.01563,4.97187c0.31808,0.94752 1.13571,1.64025 2.12261,1.79836c0.9869,0.15812 1.98002,-0.2445 2.5782,-1.04522c0.59818,-0.80072 0.7026,-1.86725 0.27107,-2.76877zM73.90625,115.91188c-1.37292,-0.55359 -2.93501,0.10729 -3.49375,1.47812l-2.01562,4.97187c-0.43153,0.90153 -0.32711,1.96806 0.27107,2.76877c0.59818,0.80072 1.5913,1.20333 2.5782,1.04522c0.9869,-0.15812 1.80452,-0.85085 2.12261,-1.79836l2.01563,-4.97187c0.55359,-1.37292 -0.10729,-2.93501 -1.47813,-3.49375zM59.39375,108.81688l-3.78937,3.78937c-0.76695,0.6568 -1.10102,1.68807 -0.86486,2.66981c0.23616,0.98175 1.00268,1.74827 1.98443,1.98443c0.98175,0.23616 2.01302,-0.09792 2.66981,-0.86486l3.78938,-3.78937c0.91315,-1.06629 0.85176,-2.65577 -0.14092,-3.64845c-0.99268,-0.99268 -2.58216,-1.05407 -3.64845,-0.14092zM56.4375,98.60437c-0.57971,-1.36467 -2.15509,-2.00203 -3.52062,-1.42437l-4.945,2.09625c-0.92108,0.34902 -1.57743,1.17396 -1.71055,2.14992c-0.13312,0.97595 0.27832,1.94654 1.07228,2.52949c0.79396,0.58295 1.84321,0.68486 2.73452,0.26559l4.81062,-2.09625c0.67968,-0.25232 1.22858,-0.76854 1.52209,-1.43148c0.29351,-0.66293 0.30673,-1.41633 0.03666,-2.08915z" fill="#e67e22"></path></g></g></svg>